<?xml version="1.0" encoding="UTF-8"?>
<svg xmlns="http://www.w3.org/2000/svg" width="640" height="280" viewBox="0 0 640 280" font-family="ui-sans-serif, system-ui, sans-serif" aria-label="Codebase size">
<rect width="640" height="280" fill="#f8fafc"/>
<text x="52.0" y="20.0" text-anchor="start" dominant-baseline="auto" fill="#0f172a" font-size="12" font-weight="600">コード規模（行数）</text>
<line x1="52.0" y1="232.0" x2="532.0" y2="232.0" stroke="#e2e8f0" stroke-width="1"/>
<text x="46.0" y="232.0" text-anchor="end" dominant-baseline="middle" fill="#94a3b8" font-size="10.5">0</text>
<line x1="52.0" y1="215.3" x2="532.0" y2="215.3" stroke="#e2e8f0" stroke-width="1"/>
<text x="46.0" y="215.3" text-anchor="end" dominant-baseline="middle" fill="#94a3b8" font-size="10.5">5k</text>
<line x1="52.0" y1="198.7" x2="532.0" y2="198.7" stroke="#e2e8f0" stroke-width="1"/>
<text x="46.0" y="198.7" text-anchor="end" dominant-baseline="middle" fill="#94a3b8" font-size="10.5">10k</text>
<line x1="52.0" y1="182.0" x2="532.0" y2="182.0" stroke="#e2e8f0" stroke-width="1"/>
<text x="46.0" y="182.0" text-anchor="end" dominant-baseline="middle" fill="#94a3b8" font-size="10.5">15k</text>
<line x1="52.0" y1="165.3" x2="532.0" y2="165.3" stroke="#e2e8f0" stroke-width="1"/>
<text x="46.0" y="165.3" text-anchor="end" dominant-baseline="middle" fill="#94a3b8" font-size="10.5">20k</text>
<line x1="52.0" y1="148.7" x2="532.0" y2="148.7" stroke="#e2e8f0" stroke-width="1"/>
<text x="46.0" y="148.7" text-anchor="end" dominant-baseline="middle" fill="#94a3b8" font-size="10.5">25k</text>
<line x1="52.0" y1="132.0" x2="532.0" y2="132.0" stroke="#e2e8f0" stroke-width="1"/>
<text x="46.0" y="132.0" text-anchor="end" dominant-baseline="middle" fill="#94a3b8" font-size="10.5">30k</text>
<line x1="52.0" y1="115.3" x2="532.0" y2="115.3" stroke="#e2e8f0" stroke-width="1"/>
<text x="46.0" y="115.3" text-anchor="end" dominant-baseline="middle" fill="#94a3b8" font-size="10.5">35k</text>
<line x1="52.0" y1="98.7" x2="532.0" y2="98.7" stroke="#e2e8f0" stroke-width="1"/>
<text x="46.0" y="98.7" text-anchor="end" dominant-baseline="middle" fill="#94a3b8" font-size="10.5">40k</text>
<line x1="52.0" y1="82.0" x2="532.0" y2="82.0" stroke="#e2e8f0" stroke-width="1"/>
<text x="46.0" y="82.0" text-anchor="end" dominant-baseline="middle" fill="#94a3b8" font-size="10.5">45k</text>
<line x1="52.0" y1="65.3" x2="532.0" y2="65.3" stroke="#e2e8f0" stroke-width="1"/>
<text x="46.0" y="65.3" text-anchor="end" dominant-baseline="middle" fill="#94a3b8" font-size="10.5">50k</text>
<line x1="52.0" y1="48.7" x2="532.0" y2="48.7" stroke="#e2e8f0" stroke-width="1"/>
<text x="46.0" y="48.7" text-anchor="end" dominant-baseline="middle" fill="#94a3b8" font-size="10.5">55k</text>
<line x1="52.0" y1="32.0" x2="532.0" y2="32.0" stroke="#e2e8f0" stroke-width="1"/>
<text x="46.0" y="32.0" text-anchor="end" dominant-baseline="middle" fill="#94a3b8" font-size="10.5">60k</text>
<path d="M52.0,194.1 L116.0,190.8 L212.0,190.8 L532.0,187.1 L532.0,232.0 L212.0,232.0 L116.0,232.0 L52.0,232.0 Z" fill="rgba(37,99,235,0.18)"/>
<path d="M52.0,123.5 L116.0,110.3 L212.0,109.9 L532.0,99.8 L532.0,187.1 L212.0,190.8 L116.0,190.8 L52.0,194.1 Z" fill="rgba(124,58,237,0.16)"/>
<path d="M52.0,100.8 L116.0,83.3 L212.0,82.9 L532.0,64.8 L532.0,99.8 L212.0,109.9 L116.0,110.3 L52.0,123.5 Z" fill="rgba(5,150,105,0.16)"/>
<path d="M52.0,194.1 L116.0,190.8 L212.0,190.8 L532.0,187.1" fill="none" stroke="#2563eb" stroke-width="1.6" stroke-linejoin="round"/>
<path d="M52.0,123.5 L116.0,110.3 L212.0,109.9 L532.0,99.8" fill="none" stroke="#7c3aed" stroke-width="1.6" stroke-linejoin="round"/>
<path d="M52.0,100.8 L116.0,83.3 L212.0,82.9 L532.0,64.8" fill="none" stroke="#059669" stroke-width="1.6" stroke-linejoin="round"/>
<line x1="52.0" y1="32.0" x2="52.0" y2="232.0" stroke="#cbd5e1" stroke-width="1"/>
<line x1="52.0" y1="232.0" x2="532.0" y2="232.0" stroke="#cbd5e1" stroke-width="1"/>
<line x1="52.0" y1="232.0" x2="52.0" y2="236.0" stroke="#cbd5e1" stroke-width="1"/>
<text x="52.0" y="248.0" text-anchor="middle" dominant-baseline="auto" fill="#94a3b8" font-size="10.5">9/19</text>
<line x1="212.0" y1="232.0" x2="212.0" y2="236.0" stroke="#cbd5e1" stroke-width="1"/>
<text x="212.0" y="248.0" text-anchor="middle" dominant-baseline="auto" fill="#94a3b8" font-size="10.5">9/24</text>
<line x1="532.0" y1="232.0" x2="532.0" y2="236.0" stroke="#cbd5e1" stroke-width="1"/>
<text x="532.0" y="248.0" text-anchor="middle" dominant-baseline="auto" fill="#94a3b8" font-size="10.5">10/4</text>
<text x="540.0" y="187.1" text-anchor="start" dominant-baseline="middle" fill="#2563eb" font-size="10" font-weight="600">13,456 src</text>
<text x="540.0" y="99.8" text-anchor="start" dominant-baseline="middle" fill="#7c3aed" font-size="10" font-weight="600">26,206 web</text>
<text x="540.0" y="64.8" text-anchor="start" dominant-baseline="middle" fill="#059669" font-size="10" font-weight="600">10,498 tests</text>
<rect x="52" y="258" width="11" height="8" rx="1.5" fill="#2563eb" opacity="0.8"/>
<text x="67.0" y="266.0" text-anchor="start" dominant-baseline="auto" fill="#475569" font-size="10">Worker src/</text>
<rect x="138.4" y="258" width="11" height="8" rx="1.5" fill="#7c3aed" opacity="0.8"/>
<text x="153.4" y="266.0" text-anchor="start" dominant-baseline="auto" fill="#475569" font-size="10">UI web/src/</text>
<rect x="224.8" y="258" width="11" height="8" rx="1.5" fill="#059669" opacity="0.8"/>
<text x="239.8" y="266.0" text-anchor="start" dominant-baseline="auto" fill="#475569" font-size="10">test + e2e</text>
</svg>
